<?xml version="1.0" encoding="UTF-8"?>
<svg width="320px" height="70px" viewBox="0 0 320 70" version="1.1" xmlns="http://www.w3.org/2000/svg" xmlns:xlink="http://www.w3.org/1999/xlink">
    <!-- Generator: Sketch 63.1 (92452) - https://sketch.com -->
    <title>android</title>
    <desc>Created with Sketch.</desc>
    <g id="android" stroke="none" stroke-width="1" fill="none" fill-rule="evenodd">
        <rect id="Rectangle" fill="#D7EFFE" x="0" y="-1.42108547e-14" width="320" height="70" rx="9"></rect>
        <text id="Runs-on-Android" font-family="ArialMT, Arial" font-size="20" font-weight="normal" fill="#000000">
            <tspan x="148" y="42">Runs on Android</tspan>
        </text>
        <text id="+" opacity="0.5" font-family="ArialMT, Arial" font-size="20" font-weight="normal" fill="#000000">
            <tspan x="62" y="42">+</tspan>
        </text>
        <path d="M19.7222222,40.6921211 C19.7222222,47.1278358 25.0693714,52.3448478 31.6652047,52.3448478 C37.5262731,52.3448478 42.2777778,47.7089838 42.2777778,41.9901514 C42.2777778,40.4395469 41.8783996,38.9799715 41.1745401,37.7040004 L41.1291944,37.62318 L41.0841689,37.663978 C38.9958146,39.5229323 36.2321606,40.6720411 33.1941313,40.7200978 L32.995614,40.7216669 L31.6652047,40.7216669 C28.7090956,40.7216669 26.3128655,38.3837555 26.3128655,35.5 C26.3128655,32.645082 28.6614106,30.3251459 31.5766912,30.2790327 L31.6652047,30.2783331 L32.995614,30.2783331 C36.1116826,30.2783331 38.9504156,31.4366556 41.0841689,33.336022 L41.1291944,33.3766434 L41.1745401,33.2959996 C41.8556945,32.0611888 42.2516946,30.6544282 42.2765342,29.1596198 L42.2777778,29.0098486 C42.2777778,23.2910162 37.5262731,18.6551522 31.6652047,18.6551522 C25.1353297,18.6551522 19.8292901,23.7683456 19.7238223,30.115177 L19.7222222,30.3078789 L19.7222222,40.6921211 Z M32.995614,32.9334852 L31.6652047,32.9334852 C30.212725,32.9334852 29.0350877,34.0824616 29.0350877,35.5 C29.0350877,36.8978504 30.18024,38.0345469 31.6048462,38.0658522 L31.6652047,38.0665148 L32.995614,38.0665148 C35.4669885,38.0665148 37.7128151,37.1241286 39.3761754,35.5875423 L39.4694167,35.5000065 L39.4575088,35.4885051 C37.8204926,33.9392977 35.6002654,32.9734747 33.1491088,32.9346986 L32.995614,32.9334852 Z M17.0019647,30.0712746 C17.1314682,22.2784687 23.6467366,16 31.6652047,16 C39.0299026,16 45,21.8247991 45,29.0098486 C45,31.4030705 44.2642374,33.6286561 43.0013505,35.4830242 L42.9894444,35.5 L43.0013505,35.5169758 C44.2301053,37.3212259 44.959844,39.4768988 44.9983918,41.7964778 L45,41.9901514 C45,49.1752009 39.0299026,55 31.6652047,55 C23.6467366,55 17.1314682,48.7215313 17.0019647,40.9287254 L17,40.6921211 L17,30.3078789 L17.0019647,30.0712746 Z" id="bionic-logo-paths-copy-3" fill="#000000" fill-rule="nonzero"></path>
        <path d="M120.222078,29.8339496 L124.037883,23.1712148 C124.253211,22.7976995 124.123014,22.3232307 123.757455,22.1061865 C123.3919,21.8891458 122.916176,22.015332 122.705856,22.388849 L118.839974,29.1373933 C115.890485,27.7796069 112.570436,27.0224791 109,27.0224791 C105.429566,27.0224791 102.109515,27.7796069 99.1600258,29.1373933 L95.2941437,22.388849 C95.0788155,22.015332 94.6080996,21.8891458 94.2375357,22.1061865 C93.86697,22.3232307 93.7417797,22.7976995 93.957108,23.1712148 L97.772915,29.8339496 C91.1929025,33.4277912 86.7361192,40.1410002 86,48 L132,48 C131.263879,40.1410002 126.807094,33.4277912 120.222078,29.8339496 Z M98.9999878,42 C97.8935001,42 97,41.1012981 97,40 C97,38.8935041 97.898696,38 98.9999878,38 C100.106476,38 101,38.8987001 101,40 C101.005193,41.1012981 100.106476,42 98.9999878,42 Z M120,42 C118.893505,42 118,41.1012981 118,40 C118,38.8935041 118.898697,38 120,38 C121.10648,38 122,38.8987001 122,40 C122.005175,41.1012981 121.10648,42 120,42 Z" id="path80319" fill="#32DE84" fill-rule="nonzero"></path>
    </g>
</svg>