<?xml version="1.0" encoding="UTF-8"?>
<svg width="320px" height="70px" viewBox="0 0 320 70" version="1.1" xmlns="http://www.w3.org/2000/svg" xmlns:xlink="http://www.w3.org/1999/xlink">
    <!-- Generator: Sketch 63.1 (92452) - https://sketch.com -->
    <title>ios</title>
    <desc>Created with Sketch.</desc>
    <g id="ios" stroke="none" stroke-width="1" fill="none" fill-rule="evenodd">
        <rect id="Rectangle" fill="#000000" x="0" y="0" width="320" height="70" rx="9"></rect>
        <path d="M117.063362,22.8154906 C118.542325,23.0974214 119.932041,23.6048968 121.14326,24.605751 C121.869992,25.1978057 122.494726,25.9308257 123.004714,26.7766181 C122.940965,26.8189077 122.889967,26.8611973 122.826218,26.9034869 C121.793494,27.6506035 120.888267,28.5386854 120.225283,29.6946016 C118.988564,31.8372756 118.784569,34.1632045 119.243558,36.6019058 C119.638798,38.6459039 120.658772,40.2670059 122.112236,41.549791 C122.673222,42.0431698 123.285207,42.4801625 123.96094,42.7620933 L123.96094,42.8466726 L123.96094,42.8466726 C123.93544,42.9030587 123.909941,42.9594449 123.897191,43.015831 C123.15771,45.4827254 122.048488,47.7240751 120.646023,49.7962663 C119.995789,50.7548309 119.332805,51.6852025 118.465827,52.4182226 C117.433103,53.3063045 116.272882,53.7292007 114.959665,53.4613664 C114.194684,53.3063045 113.467952,53.0384703 112.75397,52.7001533 C111.925241,52.3195468 111.083762,52.0517125 110.178534,51.9671333 C109.14581,51.8684575 108.151335,52.0799056 107.16961,52.4464156 C106.532126,52.6860568 105.907391,52.9820841 105.257157,53.2217253 C104.810919,53.3767872 104.33918,53.475463 103.880192,53.5882353 L103.127961,53.5882353 L103.127961,53.5882353 C102.796469,53.4895595 102.452228,53.4049803 102.133485,53.2640149 C101.228258,52.8693118 100.514276,52.1785814 99.8895416,51.4032717 C97.8750919,48.9222809 96.3068811,46.1170696 95.2996563,42.9594449 C94.6876716,41.0564121 94.2414328,39.1251862 94.0501876,37.1234777 C94.0246882,36.7005815 93.9991888,36.2917819 93.9609398,35.8688857 L93.9609398,34.0504322 L93.9609398,34.0504322 C93.9736895,33.965853 93.9864392,33.8812737 93.9991888,33.782598 C94.0629372,32.4998129 94.2669321,31.2593175 94.6494226,30.0470151 C95.3379054,27.8761481 96.4471276,26.015405 98.1555849,24.6621372 C99.6472976,23.4780279 101.304756,22.8295871 103.16621,22.8154906 C104.173434,22.8154906 105.116911,23.139711 106.047638,23.506221 C106.889117,23.8304414 107.730596,24.1546618 108.584824,24.4788822 C108.992814,24.6339441 109.400804,24.6339441 109.808794,24.4647857 C110.573774,24.1546618 111.351505,23.872731 112.116486,23.5767037 C113.710196,22.9282629 115.329406,22.4912702 117.063362,22.8154906 Z M115.993848,13 C116.042073,13.799324 116.030017,14.598648 115.8974,15.397972 C115.608054,17.2582169 114.872633,18.8423317 113.811697,20.2229822 C113.00394,21.26937 112.063566,22.0832271 110.906182,22.4756225 C110.339546,22.6645537 109.748798,22.7372195 109.15805,22.69362 C109.013377,22.6790868 108.989265,22.6209542 108.977209,22.4610894 C108.856648,20.3247144 109.411227,18.4499363 110.472163,16.7495562 C111.725995,14.7439796 113.401791,13.5522602 115.427213,13.0726658 C115.523661,13.0435995 115.62011,13.0290663 115.716558,13.0145332 C115.837119,13 115.921512,13 115.993848,13 Z" id="Combined-Shape" fill="#FFFFFF" fill-rule="nonzero"></path>
        <text id="Runs-on-iOS" font-family="ArialMT, Arial" font-size="20" font-weight="normal" fill="#FFFFFF">
            <tspan x="148" y="42">Runs on iOS</tspan>
        </text>
        <text id="+" opacity="0.5" font-family="ArialMT, Arial" font-size="20" font-weight="normal" fill="#FFFFFF">
            <tspan x="62" y="42">+</tspan>
        </text>
        <path d="M19.7222222,40.6921211 C19.7222222,47.1278358 25.0693714,52.3448478 31.6652047,52.3448478 C37.5262731,52.3448478 42.2777778,47.7089838 42.2777778,41.9901514 C42.2777778,40.4395469 41.8783996,38.9799715 41.1745401,37.7040004 L41.1291944,37.62318 L41.0841689,37.663978 C38.9958146,39.5229323 36.2321606,40.6720411 33.1941313,40.7200978 L32.995614,40.7216669 L31.6652047,40.7216669 C28.7090956,40.7216669 26.3128655,38.3837555 26.3128655,35.5 C26.3128655,32.645082 28.6614106,30.3251459 31.5766912,30.2790327 L31.6652047,30.2783331 L32.995614,30.2783331 C36.1116826,30.2783331 38.9504156,31.4366556 41.0841689,33.336022 L41.1291944,33.3766434 L41.1745401,33.2959996 C41.8556945,32.0611888 42.2516946,30.6544282 42.2765342,29.1596198 L42.2777778,29.0098486 C42.2777778,23.2910162 37.5262731,18.6551522 31.6652047,18.6551522 C25.1353297,18.6551522 19.8292901,23.7683456 19.7238223,30.115177 L19.7222222,30.3078789 L19.7222222,40.6921211 Z M32.995614,32.9334852 L31.6652047,32.9334852 C30.212725,32.9334852 29.0350877,34.0824616 29.0350877,35.5 C29.0350877,36.8978504 30.18024,38.0345469 31.6048462,38.0658522 L31.6652047,38.0665148 L32.995614,38.0665148 C35.4669885,38.0665148 37.7128151,37.1241286 39.3761754,35.5875423 L39.4694167,35.5000065 L39.4575088,35.4885051 C37.8204926,33.9392977 35.6002654,32.9734747 33.1491088,32.9346986 L32.995614,32.9334852 Z M17.0019647,30.0712746 C17.1314682,22.2784687 23.6467366,16 31.6652047,16 C39.0299026,16 45,21.8247991 45,29.0098486 C45,31.4030705 44.2642374,33.6286561 43.0013505,35.4830242 L42.9894444,35.5 L43.0013505,35.5169758 C44.2301053,37.3212259 44.959844,39.4768988 44.9983918,41.7964778 L45,41.9901514 C45,49.1752009 39.0299026,55 31.6652047,55 C23.6467366,55 17.1314682,48.7215313 17.0019647,40.9287254 L17,40.6921211 L17,30.3078789 L17.0019647,30.0712746 Z" id="bionic-logo-paths-copy-3" fill="#FFFFFF" fill-rule="nonzero"></path>
    </g>
</svg>