<?xml version="1.0" encoding="UTF-8"?>
<svg width="80px" height="80px" viewBox="0 0 80 80" version="1.1" xmlns="http://www.w3.org/2000/svg" xmlns:xlink="http://www.w3.org/1999/xlink">
    <g id="reg" stroke="none" stroke-width="1" fill="none" fill-rule="evenodd">
        <path d="M18.3472222,50.3842422 C18.3472222,63.2556717 28.850551,73.6896956 41.806652,73.6896956 C53.3194651,73.6896956 62.6527778,64.4179676 62.6527778,52.9803028 C62.6527778,49.8790938 61.868285,46.9599431 60.4857037,44.4080008 L60.3966319,44.24636 L60.3081888,44.327956 C56.2060643,48.0458647 50.7774583,50.3440823 44.8099007,50.4401957 L44.4199561,50.4433339 L41.806652,50.4433339 C36.0000091,50.4433339 31.2931287,45.7675111 31.2931287,40 C31.2931287,34.290164 35.9063422,29.6502918 41.6327863,29.5580653 L41.806652,29.5566661 L44.4199561,29.5566661 C50.5408051,29.5566661 56.1168877,31.8733112 60.3081888,35.672044 L60.3966319,35.7532868 L60.4857037,35.5919992 C61.8236856,33.1223776 62.601543,30.3088564 62.650335,27.3192397 L62.6527778,27.0196972 C62.6527778,15.5820324 53.3194651,6.31030435 41.806652,6.31030435 C28.980112,6.31030435 18.5575341,16.5366912 18.3503652,29.2303541 L18.3472222,29.6157578 L18.3472222,50.3842422 Z M44.4199561,34.8669705 L41.806652,34.8669705 C38.953567,34.8669705 36.6403509,37.1649231 36.6403509,40 C36.6403509,42.7957008 38.8897572,45.0690939 41.6880907,45.1317044 L41.806652,45.1330295 L44.4199561,45.1330295 C49.2744417,45.1330295 53.6858868,43.2482572 56.9532017,40.1750845 L57.1363542,40.0000131 L57.1129638,39.9770102 C53.8973962,36.8785955 49.5362357,34.9469493 44.7214638,34.8693971 L44.4199561,34.8669705 Z M13.0038592,29.1425493 C13.2582411,13.5569374 26.0560897,1 41.806652,1 C56.2730229,1 68,12.6495982 68,27.0196972 C68,31.8061409 66.554752,36.2573121 64.0740814,39.9660484 L64.0506944,40.0000131 L64.0740814,40.0339516 C66.4877069,43.6424517 67.9211222,47.9537975 67.996841,52.5929555 L68,52.9803028 C68,67.3504018 56.2730229,79 41.806652,79 C26.0560897,79 13.2582411,66.4430626 13.0038592,50.8574507 L13,50.3842422 L13,29.6157578 L13.0038592,29.1425493 Z" id="bionic-logo-paths-copy-3" fill="#000000" fill-rule="nonzero"></path>
        <path d="M75,10 C77.7605634,10 80,7.76056338 80,5 C80,2.23943662 77.7605634,0 75,0 C72.2394366,0 70,2.23943662 70,5 C70,7.76056338 72.2394366,10 75,10 Z M75,9.08450704 C72.7183099,9.08450704 70.915493,7.28169014 70.915493,5 C70.915493,2.71830986 72.7183099,0.915492958 75,0.915492958 C77.2816901,0.915492958 79.084507,2.71830986 79.084507,5 C79.084507,7.28169014 77.2816901,9.08450704 75,9.08450704 Z M75,7.56338028 C75.943662,7.56338028 76.8873239,7.01408451 77.028169,5.8028169 L76.0985915,5.8028169 C76.0422535,6.47887324 75.5774648,6.8028169 75,6.8028169 C74.3943662,6.8028169 73.8732394,6.36619718 73.8732394,5.71830986 L73.8732394,4.28169014 C73.8732394,3.57746479 74.4366197,3.1971831 74.9859155,3.1971831 C75.5211268,3.1971831 75.9859155,3.42253521 76.056338,4.15492958 L76.9859155,4.15492958 C76.8873239,3.01408451 76.0704225,2.43661972 75.0422535,2.43661972 C73.6901408,2.43661972 72.8873239,3.46478873 72.8873239,5.04225352 C72.8873239,6.49295775 73.6197183,7.56338028 75,7.56338028 Z" id="©" fill="#000000" fill-rule="nonzero" opacity="0.5"></path>
    </g>
</svg>