<?xml version="1.0" encoding="UTF-8"?>
<svg width="80px" height="80px" viewBox="0 0 80 80" version="1.1" xmlns="http://www.w3.org/2000/svg" xmlns:xlink="http://www.w3.org/1999/xlink">
    <g id="screen" stroke="none" stroke-width="1" fill="none" fill-rule="evenodd">
        <path d="M59.4285714,66.4444444 L59.4285714,74 L21.5714286,74 L21.5714286,66.4444444 L59.4285714,66.4444444 Z M67,43.7777778 L67,66.4444444 L59.4285714,66.4444444 L59.4285714,43.7777778 L67,43.7777778 Z M21.5714286,13.5555556 L21.5714286,66.4444444 L14,66.4444444 L14,13.5555556 L21.5714286,13.5555556 Z M51.8571429,43.7777778 L51.8571429,51.3333333 L36.7142857,51.3333333 L36.7142857,43.7777778 L51.8571429,43.7777778 Z M59.4285714,36.2222222 L59.4285714,43.7777778 L51.8571429,43.7777778 L51.8571429,36.2222222 L59.4285714,36.2222222 Z M36.7142857,36.2222222 L36.7142857,43.7777778 L29.1428571,43.7777778 L29.1428571,36.2222222 L36.7142857,36.2222222 Z M67,13.5555556 L67,36.2222222 L59.4285714,36.2222222 L59.4285714,13.5555556 L67,13.5555556 Z M51.8571429,28.6666667 L51.8571429,36.2222222 L36.7142857,36.2222222 L36.7142857,28.6666667 L51.8571429,28.6666667 Z M59.4285714,6 L59.4285714,13.5555556 L21.5714286,13.5555556 L21.5714286,6 L59.4285714,6 Z" id="Combined-Shape" fill="#000000"></path>
    </g>
</svg>